<?xml version="1.0" encoding="UTF-8" standalone="no"?>
<svg
   version="1.1"
   id="Layer_1"
   x="0px"
   y="0px"
   viewBox="0 0 199.99999 200"
   xml:space="preserve"
   sodipodi:docname="favicon.svg"
   width="200"
   height="200"
   inkscape:version="1.1 (c68e22c387, 2021-05-23)"
   xmlns:inkscape="http://www.inkscape.org/namespaces/inkscape"
   xmlns:sodipodi="http://sodipodi.sourceforge.net/DTD/sodipodi-0.dtd"
   xmlns="http://www.w3.org/2000/svg"
   xmlns:svg="http://www.w3.org/2000/svg"
   xmlns:rdf="http://www.w3.org/1999/02/22-rdf-syntax-ns#"
   xmlns:cc="http://creativecommons.org/ns#"
   xmlns:dc="http://purl.org/dc/elements/1.1/"><metadata
   id="metadata76"><rdf:RDF><cc:Work
       rdf:about=""><dc:format>image/svg+xml</dc:format><dc:type
         rdf:resource="http://purl.org/dc/dcmitype/StillImage" /></cc:Work></rdf:RDF></metadata><defs
   id="defs74" /><sodipodi:namedview
   pagecolor="#ffffff"
   bordercolor="#666666"
   borderopacity="1"
   objecttolerance="10"
   gridtolerance="10"
   guidetolerance="10"
   inkscape:pageopacity="0"
   inkscape:pageshadow="2"
   inkscape:window-width="2018"
   inkscape:window-height="1040"
   id="namedview72"
   showgrid="false"
   inkscape:zoom="2.1376027"
   inkscape:cx="54.968118"
   inkscape:cy="50.523887"
   inkscape:window-x="536"
   inkscape:window-y="0"
   inkscape:window-maximized="0"
   inkscape:current-layer="Layer_1"
   inkscape:pagecheckerboard="0" />
<style
   type="text/css"
   id="style2">
	.st0{fill:#2A2D34;}
	.st1{enable-background:new    ;}
	.st2{fill:url(#SVGID_1_);}
	.st3{fill:url(#XMLID_2_);}
	.st4{fill:url(#SVGID_2_);}
	.st5{fill:url(#SVGID_3_);}
</style>

<g
   id="g69"
   transform="translate(4.9777458,-4.9999999)">
	<g
   id="g45">
		<g
   class="st1"
   id="g43">
			<g
   id="g41">
				<g
   id="g39">
					<linearGradient
   id="SVGID_1_"
   gradientUnits="userSpaceOnUse"
   x1="47.950199"
   y1="112.7993"
   x2="196.02901"
   y2="82.477501">
						<stop
   offset="0"
   style="stop-color:#F8BE66"
   id="stop32" />
						<stop
   offset="1"
   style="stop-color:#D18839"
   id="stop34" />
					</linearGradient>
					<path
   class="st2"
   d="m 145.3,188.2 c 0.2,2.6 0.1,5 -0.4,7.2 -0.4,2.2 -1.2,4.2 -2.3,5.7 -1.1,1.6 -2.5,2.8 -4.1,3.4 -0.9,0.3 -1.7,0.5 -2.6,0.5 -0.9,0 -1.8,-0.1 -2.7,-0.4 -1.9,-0.6 -3.7,-1.7 -5.5,-3.3 -1.8,-1.6 -3.4,-3.7 -4.9,-6.2 -1.4,-2.5 -2.6,-5.3 -3.5,-8.3 0,-0.2 -0.1,-0.3 -0.1,-0.5 0,-0.2 -0.1,-0.3 -0.1,-0.5 0,-0.2 -0.1,-0.3 -0.1,-0.5 0,-0.2 -0.1,-0.3 -0.1,-0.5 L 88,174.1 c 0,0.1 -0.1,0.2 -0.1,0.4 0,0.1 -0.1,0.2 -0.1,0.3 0,0.1 -0.1,0.2 -0.1,0.3 0,0.1 -0.1,0.2 -0.1,0.3 -0.5,1.3 -1.1,2.4 -1.8,3.4 -0.7,1 -1.5,1.9 -2.4,2.7 -0.9,0.8 -1.8,1.4 -2.8,2 -1,0.5 -2.1,0.9 -3.2,1.2 -0.9,0.2 -1.9,0.3 -2.9,0.3 -0.2,0 -0.4,0 -0.6,0 -1.2,0 -2.4,-0.3 -3.7,-0.6 -1.2,-0.4 -2.5,-0.9 -3.7,-1.6 -1.3,-0.7 -2.5,-1.6 -3.7,-2.6 -2.4,-2.1 -4.4,-4.6 -6,-7.5 -1.6,-2.8 -2.7,-5.9 -3.4,-9 -0.6,-3.1 -0.8,-6.2 -0.5,-9.2 0.4,-2.9 1.2,-5.7 2.6,-8.1 0.1,-0.1 0.1,-0.2 0.2,-0.3 0.1,-0.1 0.1,-0.2 0.2,-0.3 0.1,-0.1 0.1,-0.2 0.2,-0.3 0.1,-0.1 0.1,-0.2 0.2,-0.3 L 32.7,103.9 c -0.1,0 -0.2,0 -0.2,0 H 32 c -0.1,0 -0.2,0 -0.3,0 -0.1,0 -0.3,0 -0.4,0 -0.1,0 -0.3,0 -0.4,0 -2.9,-0.2 -5.7,-1 -8.5,-2.2 C 19.6,100.4 17,98.6 14.6,96.4 12.2,94.2 10.2,91.7 8.5,88.9 6.9,86 5.8,83 5.3,80 4.8,77 5,74.3 5.7,71.9 6.4,69.5 7.6,67.5 9.3,66 c 1.6,-1.5 3.7,-2.6 6,-3.2 1.3,-0.3 2.6,-0.5 4,-0.5 1.2,0 2.4,0.1 3.6,0.3 0.1,0 0.3,0.1 0.4,0.1 0.1,0 0.3,0.1 0.4,0.1 0.1,0 0.3,0.1 0.4,0.1 0.1,0 0.3,0.1 0.4,0.1 L 31.7,33.2 C 31.6,33.1 31.5,33 31.3,32.9 31.2,32.8 31.1,32.7 30.9,32.6 30.8,32.5 30.7,32.4 30.5,32.3 30.4,32.2 30.3,32.1 30.2,31.9 28,29.7 26.3,27.3 24.9,24.9 23.6,22.5 22.6,20.2 22.2,18 21.7,15.8 21.7,13.8 22.2,12 22.7,10.3 23.6,8.9 25,7.9 25.7,7.4 26.5,7 27.3,6.8 28.1,6.6 29.1,6.4 30,6.4 c 0,0 0.1,0 0.1,0 h 0.2 c 0.1,0 0.3,0 0.4,0 0.1,0 0.1,0 0.2,0 0.1,0 0.2,0 0.4,0 0.1,0 0.1,0 0.2,0 0.1,0 0.1,0 0.2,0 0.1,0 0.1,0 0.2,0 0,0 0.1,0 0.1,0 0.1,0 0.3,0 0.4,0.1 0.2,0 0.5,0.1 0.7,0.1 1,0.2 2.1,0.5 3.1,0.9 1.1,0.4 2.1,0.9 3.2,1.4 1.1,0.6 2.1,1.2 3.2,1.9 1,0.7 2.1,1.5 3.1,2.4 1,0.9 2,1.8 2.9,2.8 0.1,0.1 0.2,0.2 0.3,0.3 0.1,0.1 0.2,0.2 0.3,0.3 0.1,0.1 0.2,0.2 0.3,0.3 0.1,0.1 0.2,0.2 0.3,0.3 l 21.6,-1.7 c 0,-0.1 -0.1,-0.2 -0.1,-0.3 0,-0.1 -0.1,-0.2 -0.1,-0.3 0,-0.1 -0.1,-0.2 -0.1,-0.3 C 71.1,14.5 71,14.4 71,14.3 70.5,12.4 70.3,10.7 70.5,9.3 70.7,8 71.2,6.9 72,6.2 72.8,5.5 73.9,5 75.1,5 c 0.1,0 0.2,0 0.3,0 0.8,0 1.7,0.1 2.7,0.4 0.3,0.1 0.5,0.2 0.8,0.3 0.2,0.1 0.4,0.1 0.6,0.2 1.6,0.7 3.3,1.7 4.8,2.9 1.6,1.2 3.1,2.7 4.4,4.2 1.4,1.6 2.6,3.3 3.6,5 1,1.7 1.9,3.6 2.4,5.3 0,0.1 0.1,0.2 0.1,0.3 0,0.1 0.1,0.2 0.1,0.3 0,0.1 0.1,0.2 0.1,0.3 0,0.1 0,0.2 0.1,0.3 l 25.5,19.4 -25.8,-13 c -0.3,0.6 -0.7,1 -1.1,1.4 -0.5,0.4 -1,0.6 -1.6,0.8 -0.5,0.1 -1,0.2 -1.6,0.2 -0.2,0 -0.4,0 -0.5,0 C 89.2,33.2 88.4,33.1 87.5,32.8 86.6,32.5 85.6,32.1 84.7,31.5 83.8,31 82.8,30.3 81.9,29.6 81,28.9 80,28.1 79.2,27.2 78.3,26.3 77.5,25.4 76.6,24.4 L 55.5,27 c 0.4,1.1 0.6,2.3 0.8,3.3 0.1,1.1 0.2,2.1 0.1,3.1 -0.1,1 -0.3,1.9 -0.7,2.7 -0.4,0.8 -0.8,1.6 -1.5,2.3 -0.2,0.2 -0.5,0.5 -0.7,0.7 -0.4,0.3 -0.8,0.6 -1.2,0.8 -0.7,0.4 -1.6,0.6 -2.4,0.8 -0.6,0.1 -1.2,0.2 -1.9,0.2 -0.3,0 -0.6,0 -0.9,0 -1,-0.1 -2,-0.2 -3,-0.5 0,0 -0.1,0 -0.1,0 -0.1,0 -0.2,-0.1 -0.4,-0.1 -0.1,0 -0.3,-0.1 -0.4,-0.1 -0.1,0 -0.3,-0.1 -0.4,-0.1 -0.1,0 -0.3,-0.1 -0.4,-0.1 l -6,29.6 c 1.2,1 2.3,2.2 3.3,3.4 1,1.2 1.9,2.5 2.7,3.8 0.8,1.3 1.5,2.7 2.1,4.1 0.6,1.4 1.1,2.9 1.4,4.3 0.3,1.5 0.5,2.9 0.5,4.3 0,1.4 -0.1,2.7 -0.4,3.9 -0.3,1.2 -0.7,2.4 -1.2,3.5 -0.5,1.1 -1.2,2.1 -2,2.9 l 22.7,39.6 c 0.1,0 0.2,0 0.3,0 0.1,0 0.2,0 0.3,0 0.1,0 0.2,0 0.3,0 0.1,0 0.2,0 0.3,0 0.3,0 0.5,0 0.8,0 0.9,0 1.7,0.1 2.6,0.2 1.1,0.2 2.3,0.5 3.4,1 1.1,0.5 2.2,1 3.3,1.8 1.1,0.7 2.2,1.6 3.2,2.5 1.1,1.1 2.2,2.2 3.1,3.5 0.9,1.2 1.8,2.6 2.5,3.9 0.7,1.4 1.4,2.8 1.9,4.3 0.5,1.5 0.9,3 1.2,4.5 l 11.1,4.2 7.1,2.7 11.8,4.5 c 0.3,-1.3 0.7,-2.4 1.1,-3.5 0.5,-1 1,-2 1.7,-2.7 0.6,-0.8 1.4,-1.4 2.2,-1.9 0.8,-0.5 1.7,-0.8 2.6,-1 0.4,-0.1 0.9,-0.1 1.3,-0.1 0.5,0 1,0 1.5,0.1 0.9,0.2 1.9,0.5 2.8,1 0.9,0.5 1.9,1.1 2.8,1.8 0.9,0.7 1.8,1.6 2.6,2.5 l 18.9,-21.8 -13,32 c 0.1,0.1 0.1,0.3 0.2,0.4 0.1,0.1 0.1,0.3 0.1,0.4 l 0.1,0.4 c 0,0.1 0.1,0.3 0.1,0.4 0.9,2.5 1.4,5.1 1.6,7.7 z"
   id="path37"
   style="fill:url(#SVGID_1_)" />
				</g>
			</g>
		</g>
	</g>
	<g
   id="g67">
		<linearGradient
   id="XMLID_2_"
   gradientUnits="userSpaceOnUse"
   x1="-21.622999"
   y1="100.1005"
   x2="73.317902"
   y2="82.502296">
			<stop
   offset="0"
   style="stop-color:#597274"
   id="stop47" />
			<stop
   offset="1"
   style="stop-color:#5E9A9E"
   id="stop49" />
		</linearGradient>
		<path
   id="XMLID_5_"
   class="st3"
   d="m 144.4,77.1 c -3.6,9 -12.4,13.9 -19.8,11 -7.4,-2.9 -10.5,-12.6 -6.9,-21.6 3.6,-9 12.4,-13.9 19.8,-11 7.4,3 10.5,12.6 6.9,21.6 z"
   style="fill:url(#XMLID_2_)" />
		<linearGradient
   id="SVGID_2_"
   gradientUnits="userSpaceOnUse"
   x1="43.677799"
   y1="181.3477"
   x2="129.1769"
   y2="118.4059">
			<stop
   offset="0"
   style="stop-color:#597274"
   id="stop53" />
			<stop
   offset="1"
   style="stop-color:#5F9EA2"
   id="stop55" />
		</linearGradient>
		<path
   class="st4"
   d="m 181.3,58.9 c 1.6,26.3 -8.1,39.3 -11.7,43.5 -2.4,2.8 -7.6,8.1 -14.6,13 -8.4,6 -12.8,6.1 -20,12.7 -3.7,3.3 -5.8,6.1 -9.8,11.4 -7.4,9.7 -10.1,16.3 -11,18.6 -0.7,2 -1.3,3.6 -1.6,4.7 l -3.4,-1.3 -7.1,-2.7 -7.9,-3 c -0.2,-0.6 -0.4,-1.2 -0.6,-1.7 -0.1,-0.1 -0.1,-0.3 -0.2,-0.4 4.9,-3.9 14.6,-12.9 20.1,-27.9 4.8,-13.1 4.1,-24.6 3.3,-30.4 5.6,1.5 16.1,3.4 28.2,-0.1 25.8,-7.6 35.2,-33.3 36.3,-36.4 z"
   id="path58"
   style="fill:url(#SVGID_2_)" />
		<linearGradient
   id="SVGID_3_"
   gradientUnits="userSpaceOnUse"
   x1="4.3941998"
   y1="139.68221"
   x2="93.033203"
   y2="94.951103">
			<stop
   offset="0"
   style="stop-color:#597274"
   id="stop60" />
			<stop
   offset="1"
   style="stop-color:#5F9EA2"
   id="stop62" />
		</linearGradient>
		<path
   class="st5"
   d="m 110.1,114.7 c -0.3,1.6 -1.4,6.7 -4.2,12.8 -0.8,1.8 -2.3,4.7 -4.6,8.1 -1.9,2.8 -2.8,4.6 -5.7,8 -1,1.1 -1.7,2 -2.3,2.7 -0.6,0.6 -1.3,1.4 -2.1,2.3 -0.5,-1 -1.1,-1.9 -1.7,-2.8 0.2,-0.2 0.4,-0.5 0.6,-0.7 10.7,-12.4 11.4,-27.3 11.5,-30.1 0.2,-3.1 0.4,-8.7 -2,-15.2 C 97.2,93.1 93.3,88.9 91,86.5 80.8,75.6 67.6,72.2 61.5,71 c 1.2,0.6 22.8,11.3 30.3,24.3 2.9,5 4.1,9.9 4.1,9.9 1.3,5.4 0.9,9.9 0.7,12.6 -0.3,4.1 -1.2,7.5 -1.9,9.8 -5.8,-1.3 -13.8,-3.9 -22.3,-9.1 -12.9,-7.9 -16.6,-16.4 -20.3,-22.4 0.1,-0.5 0.3,-1 0.4,-1.5 0.4,-1.7 0.6,-3.6 0.5,-5.4 0,-1.8 -0.3,-3.7 -0.7,-5.6 -0.4,-1.8 -1,-3.7 -1.7,-5.5 -0.7,-1.7 -1.6,-3.4 -2.6,-5 -1,-1.6 -2.1,-3.1 -3.3,-4.6 -0.3,-0.4 -0.7,-0.8 -1,-1.2 1.9,-1 4.5,-2.2 7.7,-3.1 5.5,-1.5 9.8,-1.5 12.7,-1.4 4,0.1 10,0.7 16.5,3.1 12,4.4 19.3,12.5 22.5,16.6 2.2,2.8 7.4,10.3 8.1,21 0.2,4.7 -0.5,8.3 -1.1,11.2 z"
   id="path65"
   style="fill:url(#SVGID_3_)" />
	</g>
</g>
</svg>
